<svg width="128" height="128" viewBox="0 0 128 128" fill="none" xmlns="http://www.w3.org/2000/svg">
<rect width="128" height="128" fill="white"/>
<path d="M100.672 38.8636L73.1183 8.60589C71.9447 7.33027 70.6691 6.41183 69.2914 5.79953C67.9137 5.13621 66.383 4.83008 64.7502 4.83008C61.5867 4.83008 58.6272 6.1567 56.4332 8.60589L28.8798 38.8636C24.8488 43.3028 21.7363 51.4157 21.7363 57.3856V106.471C21.7363 114.891 28.5226 121.779 36.8907 121.779H92.6098C100.978 121.779 107.764 114.942 107.764 106.471V57.3345C107.866 51.3647 104.754 43.2517 100.672 38.8636ZM35.8702 85.8064L35.9212 85.9595C39.0337 97.1339 41.9931 107.645 41.5849 116.625H36.8907C31.329 116.625 26.8388 112.084 26.8388 106.522V57.3856C26.8388 54.2221 28.1144 49.8339 29.9513 46.3132C28.2165 58.6612 32.0943 72.4379 35.8702 85.8064ZM56.4332 16.3617L57.5557 15.1371C57.7598 16.3617 58.0149 17.5863 58.2701 18.8108L58.5252 20.0865C59.2395 23.3521 60.0049 26.6687 59.8518 29.424C59.6987 33.0978 58.7803 37.0777 57.8619 40.9046L57.7088 41.6189C57.0965 44.2212 56.3311 47.1296 55.9229 49.987C55.8719 50.2421 55.8209 50.6503 55.7188 51.0585L55.5657 51.8749C54.4942 57.0794 52.6573 65.8047 57.9129 68.3559C60.158 69.4274 62.7092 69.5805 64.7502 68.611C69.8017 66.366 72.1488 58.9163 73.7816 53.8649L73.8326 53.6097C75.1593 49.4257 75.0572 45.2927 74.9041 41.3638V41.0577C74.8531 38.4554 74.7511 35.9552 75.1082 33.455L75.1592 33.0978C75.3633 31.7201 75.5164 30.4955 75.7205 29.2709C76.2308 26.0053 76.639 23.4031 76.3328 19.8824L83.9355 28.2504C84.1906 28.5056 84.2927 28.8627 84.2927 29.2199C84.3437 30.6996 84.3947 32.3834 84.5988 34.4755C85.007 40.0372 85.4152 45.854 83.4763 50.1401C81.3843 54.8854 77.9656 59.6307 74.2918 64.6821C69.0363 71.9787 63.5766 79.4793 62.0459 87.6433C60.6172 95.5011 62.6582 102.491 64.6482 109.38C64.9033 110.145 65.2094 111.013 65.5156 111.778L65.6176 111.982C66.1789 113.513 66.8933 115.401 66.8933 116.727H56.2801C58.219 101.726 56.178 91.7253 53.8309 80.0916C52.5042 73.6625 51.0245 66.366 50.2592 57.3856C49.6469 50.089 51.3307 43.762 53.0655 37.1288L53.1166 36.9246C54.9535 30.6996 56.8414 23.8623 56.4332 16.3617ZM70.6691 28.3015C70.618 28.8117 70.516 29.322 70.4139 29.8322C70.2609 30.6996 70.1078 31.567 70.0058 32.5875C69.6486 35.4959 69.6996 38.4554 69.8016 41.1087C69.9037 44.8845 70.0058 48.4563 68.9342 51.9259L68.8832 52.1811C67.7607 55.7528 65.7197 62.386 62.7092 63.7126C62.1479 63.9678 61.4336 64.1209 60.1069 63.5086C59.8518 63.4065 59.3926 62.437 59.4947 60.1409C59.5457 57.6407 60.158 54.7323 60.5662 52.7934C60.7703 51.9259 60.9233 51.2116 60.9744 50.6503C61.3826 47.946 62.0459 45.2927 62.7092 42.7415L62.8623 42.1292C63.8318 38.0472 64.8522 33.7611 65.0563 29.5771C65.2094 26.1074 64.393 22.4336 63.5766 18.8108L63.4746 18.3516C62.9133 15.8004 62.352 13.4533 62.199 11.2592C62.1479 10.851 62.4031 10.4938 62.7602 10.3407C63.4746 10.0856 64.1889 9.98357 64.9033 9.98357C66.6381 9.98357 68.2199 10.6979 69.4445 12.0756C69.6486 12.2797 69.7506 12.5348 69.8527 12.7389C71.9957 20.4437 71.5365 23.199 70.6691 28.3015ZM48.3712 35.2408L48.3202 35.3939C46.4833 42.2822 44.5444 49.3747 45.2587 57.6407C46.0241 66.519 47.4018 73.5604 48.7795 80.3978L48.8815 81.0101C51.1776 92.2865 53.1676 102.032 51.2286 116.574H46.6874C47.0446 106.829 44.0342 96.1134 40.8706 84.7349L40.7686 84.3777C35.8702 66.8762 30.7677 48.8134 39.2378 35.547L41.1257 32.9958L51.0756 22.0764C50.7184 26.5156 49.5958 30.7506 48.3712 35.2408ZM87.5583 78.1016C87.0991 77.5914 86.0275 76.724 84.2927 76.724C78.0677 76.775 74.1388 87.4392 72.7101 92.0314L72.659 92.2355C71.3324 97.1849 73.6795 102.491 75.9246 107.645L75.9757 107.798C77.4044 110.962 78.731 114.074 79.0371 116.523H72.0467C71.9957 114.278 71.1793 112.033 70.465 109.992L70.3629 109.788C70.0568 109.023 69.8016 108.308 69.6486 107.696L69.5976 107.492C67.7096 101.012 65.9748 94.9398 67.1484 88.3066C68.424 81.3162 73.5265 74.2748 78.4759 67.4375L78.731 67.0803C82.2517 62.1819 85.9255 57.1304 88.1706 51.9769C90.4157 46.9765 90.1605 40.1392 89.7523 34.3734L96.8958 42.2312C97.2019 42.5884 97.5081 42.8945 97.7632 43.3027C93.6302 46.9765 92.5587 56.6712 92.8138 60.1409C92.9669 62.7432 93.6813 66.6721 94.3956 70.4479C94.9059 73.2543 95.4161 75.9586 95.6202 77.8465C95.7732 79.3773 95.6712 80.959 95.5181 82.6429C95.4671 83.1021 95.4671 83.5613 95.4161 84.0205V84.2757C95.161 88.0515 94.9059 91.9804 95.9264 95.6031C96.1305 96.4195 96.3856 97.1849 96.5897 97.9503L96.7427 98.5115C98.2735 104.073 99.345 107.747 99.345 114.074C97.9673 115.299 96.3346 116.115 94.6507 116.37C92.6608 114.176 91.3341 108.206 89.6503 100.706L89.1911 98.6136C88.2216 94.4296 88.5788 90.0415 88.7829 86.8269C89.089 83 89.3442 79.9385 87.5583 78.1016ZM84.2927 116.625C84.0376 113.207 82.4048 109.584 80.874 106.114L80.721 105.757C78.8841 101.624 76.792 96.9298 77.6595 93.6642C78.8841 89.174 81.8945 83.1531 83.8335 82.1326C83.8845 82.949 83.8335 84.4797 83.6804 86.6228C83.4253 90.3476 83.1191 95.0419 84.1906 99.8892L84.854 102.696C86.2316 108.614 87.3032 113.36 88.8339 116.625H84.2927V116.625ZM100.672 84.7349L100.723 83.8164C100.876 81.7754 101.029 79.6324 100.876 77.5914C100.723 74.683 100.059 72.0297 99.396 69.4785L99.243 68.9172C98.5286 66.0598 97.8143 63.3555 97.9674 60.396C98.1715 55.2936 99.192 50.2931 100.519 48.0991C101.947 51.3136 102.764 54.7323 102.764 57.3345L102.713 100.706C102.406 99.5831 102.1 98.3585 101.743 97.0318C101.59 96.4706 101.437 95.9093 101.284 95.297L101.029 94.3786C100.263 91.5212 100.468 88.0515 100.672 84.7349Z" fill="#292929" stroke="#292929" stroke-width="1.95685"/>
</svg>
